<svg xmlns="http://www.w3.org/2000/svg" viewBox="0 0 292.1 94.03"><defs><style>.cls-2{fill:#231f20}</style></defs><path class="cls-2" d="M82.72 52.68v-.05c0-4.82 3.63-8.76 8.83-8.76 3.19 0 5.11 1.06 6.68 2.61l-2.37 2.73c-1.31-1.19-2.64-1.91-4.33-1.91-2.86 0-4.91 2.37-4.91 5.28v.05c0 2.9 2.01 5.32 4.91 5.32 1.94 0 3.12-.77 4.45-1.98l2.37 2.4c-1.74 1.86-3.68 3.02-6.95 3.02-4.99 0-8.69-3.85-8.69-8.71Zm18.68-8.52h3.73v6.7H112v-6.7h3.73V61.1H112v-6.8h-6.87v6.8h-3.73zm18.78 0h12.78v3.32h-9.08v3.44h7.99v3.32h-7.99v3.56h9.2v3.32h-12.9V44.18Zm15.54 8.52v-.05c0-4.82 3.63-8.76 8.83-8.76 3.19 0 5.11 1.06 6.68 2.61l-2.37 2.73c-1.31-1.19-2.64-1.91-4.33-1.91-2.86 0-4.91 2.37-4.91 5.28v.05c0 2.9 2.01 5.32 4.91 5.32 1.94 0 3.12-.77 4.45-1.98l2.37 2.4c-1.74 1.86-3.68 3.02-6.95 3.02-4.99 0-8.69-3.85-8.69-8.71Zm18.46-8.52h3.73v7.41l6.87-7.41h4.5l-6.9 7.19 7.21 9.75h-4.48l-5.25-7.21-1.96 2.03v5.18h-3.73V44.16Zm25.34 0h6.92c4.04 0 6.49 2.4 6.49 5.86v.05c0 3.92-3.05 5.95-6.85 5.95h-2.83v5.08h-3.73zm6.68 8.54c1.86 0 2.95-1.11 2.95-2.57v-.05c0-1.67-1.16-2.57-3.03-2.57h-2.88v5.18h2.95Zm9.12-.02v-.05c0-4.82 3.8-8.76 9.03-8.76s8.98 3.9 8.98 8.71v.05c0 4.82-3.8 8.76-9.03 8.76s-8.98-3.9-8.98-8.71m14.11 0v-.05c0-2.9-2.13-5.32-5.13-5.32s-5.08 2.37-5.08 5.28v.05c0 2.9 2.13 5.32 5.13 5.32s5.08-2.37 5.08-5.28m7.5-8.52h3.73V61.1h-3.73zm8.4 0h3.44l7.94 10.43V44.16h3.68V61.1h-3.17l-8.2-10.77V61.1h-3.68V44.16Zm23.52 3.44h-5.15v-3.44h14.04v3.44h-5.16v13.5h-3.73zm12.39-1.1h-.41v-1.96h-.74v-.38h1.9v.39h-.74v1.96Zm2.53-.56h-.01l-.73-1.1v1.67h-.41v-2.34h.44l.71 1.11.71-1.1h.44v2.34h-.41v-1.68z"/><path d="M61.04 31.25v.01zm8.4 12.2"/><path class="cls-2" d="M79.81 31.45a7.677 7.677 0 0 1-10.8 1.17 7.676 7.676 0 0 1-1.17-10.8 7.685 7.685 0 0 1 10.8-1.17c3.31 2.65 3.83 7.49 1.17 10.8"/><path d="M69.44 43.45c-2.13.98-4.68.96-6.86-.28l-6.04 8.02c.75.88 1.17 1.98 1.22 3.11.04 1-.22 2.03-.8 2.94-1.51 2.34-4.65 3.02-6.99 1.5-.25-.16-.47-.34-.68-.54-.07-.06-.13-.12-.19-.19-.14-.15-.27-.3-.39-.46-.05-.07-.11-.14-.16-.21-.15-.22-.28-.44-.39-.68-.03-.06-.05-.12-.08-.19-.08-.19-.15-.39-.21-.59l-.06-.22q-.09-.375-.12-.75v-.21c-.01-.23 0-.46.01-.69 0-.05 0-.1.01-.14.03-.27.09-.53.16-.79.02-.06.04-.12.06-.19.09-.27.19-.53.33-.79l-4.87-3.66-1.51 2.01-5.57-4.19 4.19-5.57 5.57 4.19-1.51 2.01 4.92 3.7a5.08 5.08 0 0 1 5.56-.62l6.02-7.99c-2.4-2.35-3.01-6.11-1.24-9.15.35-.6.77-1.12 1.24-1.59a20.43 20.43 0 0 0-11.49-3.56c-11.33-.03-20.53 9.13-20.56 20.46s9.13 20.53 20.46 20.56S70 59.57 70.03 48.24c0-1.66-.19-3.27-.56-4.81Z" style="fill:#ee0c5d"/></svg>